<svg width="36" height="45" viewBox="0 0 36 45" fill="none" xmlns="http://www.w3.org/2000/svg">
<path d="M26.1119 23.4985L11.4869 41.7797C11.3823 41.9115 11.2579 42.0161 11.1208 42.0875C10.9837 42.1589 10.8367 42.1957 10.6882 42.1957C10.5397 42.1957 10.3926 42.1589 10.2555 42.0875C10.1184 42.0161 9.994 41.9115 9.88941 41.7797C9.78397 41.649 9.70028 41.4934 9.64316 41.3221C9.58605 41.1507 9.55664 40.9669 9.55664 40.7813C9.55664 40.5956 9.58605 40.4118 9.64316 40.2405C9.70028 40.0691 9.78397 39.9136 9.88941 39.7828L23.7269 22.5L9.88941 5.2172C9.67757 4.9524 9.55856 4.59325 9.55856 4.21877C9.55856 4.03334 9.58778 3.84973 9.64455 3.67842C9.70131 3.5071 9.78452 3.35145 9.88941 3.22033C9.99431 3.08921 10.1188 2.9852 10.2559 2.91425C10.3929 2.84329 10.5398 2.80676 10.6882 2.80676C10.9878 2.80676 11.2751 2.95553 11.4869 3.22033L26.1119 21.5016C26.2174 21.6323 26.3011 21.7878 26.3582 21.9592C26.4153 22.1306 26.4447 22.3144 26.4447 22.5C26.4447 22.6857 26.4153 22.8695 26.3582 23.0408C26.3011 23.2122 26.2174 23.3677 26.1119 23.4985Z" fill="#AB532B"/>
</svg>
