<svg width="36" height="45" viewBox="0 0 36 45" fill="none" xmlns="http://www.w3.org/2000/svg">
<path d="M9.88906 21.5015L24.5141 3.2203C24.6186 3.08849 24.7431 2.98387 24.8802 2.91248C25.0173 2.84109 25.1643 2.80433 25.3128 2.80433C25.4613 2.80433 25.6084 2.84109 25.7455 2.91248C25.8826 2.98387 26.007 3.08849 26.1116 3.2203C26.217 3.35103 26.3007 3.50656 26.3578 3.67792C26.4149 3.84929 26.4443 4.03309 26.4443 4.21873C26.4443 4.40438 26.4149 4.58818 26.3578 4.75955C26.3007 4.93091 26.217 5.08644 26.1116 5.21717L12.2741 22.5L26.1116 39.7828C26.3234 40.0476 26.4424 40.4067 26.4424 40.7812C26.4424 40.9667 26.4132 41.1503 26.3564 41.3216C26.2997 41.4929 26.2165 41.6486 26.1116 41.7797C26.0067 41.9108 25.8821 42.0148 25.7451 42.0858C25.608 42.1567 25.4612 42.1932 25.3128 42.1932C25.0132 42.1932 24.7259 42.0445 24.5141 41.7797L9.88906 23.4984C9.78362 23.3677 9.69992 23.2122 9.64281 23.0408C9.58569 22.8694 9.55629 22.6856 9.55629 22.5C9.55629 22.3143 9.58569 22.1305 9.64281 21.9592C9.69992 21.7878 9.78362 21.6323 9.88906 21.5015Z" fill="#AB532B"/>
</svg>
