<svg width="13" height="13" viewBox="0 0 13 13" fill="none" xmlns="http://www.w3.org/2000/svg">
<g clip-path="url(#clip0_29_182)">
<path d="M12.4509 6.04671C12.1482 6.04671 11.8987 6.26705 11.8987 6.57234C11.8721 8.56071 10.7253 10.3579 8.97056 11.3216C6.32648 12.7737 3.23641 11.4703 2.05242 9.70223L3.72222 10.05C3.99831 10.1057 4.30095 9.9385 4.3567 9.63586C4.41244 9.35977 4.2452 9.05714 3.94256 9.00139L0.658703 8.31117C0.467564 8.26604 -0.0341735 8.40408 0.0242299 8.91909L0.438363 12.2322C0.46491 12.5082 0.687904 12.702 0.963993 12.702C1.37547 12.702 1.54272 12.3994 1.51617 12.0941L1.32238 10.4774C4.00628 13.6975 7.41225 13.2489 9.46699 12.3171C11.5934 11.1835 12.9473 9.00404 12.9738 6.59889C12.9765 6.29625 12.7535 6.04671 12.4509 6.04671ZM0.547205 6.95196C0.849841 6.95196 1.09938 6.73162 1.09938 6.42633C1.12593 4.43796 2.27276 2.64073 4.02751 1.67708C6.67159 0.224957 9.76166 1.52841 10.9457 3.29644L9.27585 2.94868C8.99976 2.89293 8.69713 3.06017 8.64138 3.36281C8.58563 3.6389 8.75287 3.94153 9.05551 3.99728L12.342 4.6875C12.5332 4.73263 13.0349 4.59459 12.9765 4.07958L12.5624 0.766516C12.5358 0.490427 12.3128 0.296634 12.0367 0.296634C11.6253 0.296634 11.458 0.59927 11.4846 0.90456L11.6757 2.52127C8.9918 -0.696223 5.58582 -0.250234 3.53109 0.68422C1.40467 1.81512 0.0507769 3.99728 0.0215752 6.39978C0.0215752 6.70507 0.24457 6.95196 0.547205 6.95196Z" fill="#7B7B7B"/>
</g>
<defs>
<clipPath id="clip0_29_182">
<rect width="13" height="13" fill="white"/>
</clipPath>
</defs>
</svg>
