<svg width="28" height="28" viewBox="0 0 28 28" fill="none" xmlns="http://www.w3.org/2000/svg">
<g clip-path="url(#clip0_71_2325)">
<path d="M24.5591 17.2628V11.1852C24.5591 10.8831 24.3142 10.6383 24.0122 10.6383H17.9346C17.6326 10.6383 17.3877 10.8831 17.3877 11.1852V17.2628C17.3877 17.5648 17.6326 17.8096 17.9346 17.8096H24.0122C24.3142 17.8096 24.5591 17.5648 24.5591 17.2628ZM23.4653 16.7159H18.4814V11.7321H23.4653V16.7159Z" fill="white"/>
<path d="M27.8314 2.45219C27.8314 2.15015 27.5865 1.90531 27.2845 1.90531H24.5836V1.35488C24.5836 0.607797 23.9758 0 23.2287 0H22.409C21.662 0 21.0542 0.607797 21.0542 1.35488V1.90531H18.9022V1.35488C18.9022 0.607797 18.2943 0 17.5472 0H16.7276C15.9805 0 15.3727 0.607797 15.3727 1.35488V1.90531H13.2207V1.35488C13.2207 0.607797 12.6129 0 11.8658 0H11.0461C10.299 0 9.69125 0.607797 9.69125 1.35488V1.90531H7.53924V1.35488C7.53918 0.607797 6.93139 0 6.1843 0H5.36465C4.61756 0 4.00971 0.607797 4.00971 1.35488V1.90531H0.715332C0.413348 1.90531 0.168457 2.15015 0.168457 2.45219V24.6291C0.168457 24.9309 0.41302 25.1757 0.71484 25.1759L8.00529 25.1765C8.36945 25.1717 8.566 24.8909 8.566 24.6291C8.566 24.3207 8.30071 24.0686 7.99298 24.0828C7.73491 24.087 3.46726 24.0844 1.26221 24.0827V8.32289H17.3019C16.2653 8.95918 15.3793 9.88028 14.8126 10.9594H11.9438C11.6418 10.9594 11.3969 11.2042 11.3969 11.5062V14.939C11.3969 15.241 11.6418 15.4859 11.9438 15.4859H14.1082C14.2005 15.9852 14.348 16.4727 14.5479 16.9395H11.9435C11.6415 16.9395 11.3966 17.1843 11.3966 17.4864V20.9192C11.3966 21.2212 11.6415 21.466 11.9435 21.466H15.3763C15.6783 21.466 15.9232 21.2212 15.9232 20.9192V19.0178C16.34 19.4504 16.811 19.8272 17.3245 20.139C17.8926 20.4828 18.5089 20.7485 19.1515 20.9171V24.0822H12.8316C12.5296 24.0822 12.2847 24.3271 12.2847 24.6291C12.2847 24.9312 12.5296 25.176 12.8316 25.176H19.1516V26.2397C19.1516 27.2104 19.9413 28.0001 20.9119 28.0001C21.8823 28.0001 22.6718 27.2104 22.6718 26.2397V25.176H27.2847C27.5867 25.176 27.8316 24.9312 27.8316 24.6291V14.2242L27.8314 2.45219ZM20.3772 20.0249C17.4303 19.7551 15.0959 17.2035 15.0866 14.2426C15.0729 11.0654 17.7361 8.39836 20.912 8.39836C22.7184 8.39836 24.3353 9.22474 25.4047 10.5192C26.2371 11.5269 26.7377 12.818 26.7377 14.224C26.7377 17.0803 24.5693 19.5856 21.7398 19.9906C21.2884 20.0543 20.8312 20.0658 20.3772 20.0249ZM26.6381 10.3436C26.0855 9.53099 25.3597 8.83695 24.522 8.32289H26.7378V10.494C26.7053 10.4435 26.672 10.3933 26.6381 10.3436ZM22.409 1.09375H23.2287C23.2979 1.09382 23.3643 1.12136 23.4133 1.17031C23.4622 1.21927 23.4898 1.28565 23.4898 1.35488V3.73494C23.4898 3.87674 23.3702 3.99596 23.2285 3.99596H22.4088C22.2669 3.99596 22.1479 3.87685 22.1479 3.7351L22.1479 1.35488C22.1479 1.28564 22.1755 1.21927 22.2245 1.17031C22.2734 1.12136 22.3398 1.09382 22.409 1.09375ZM16.4664 1.35488C16.4665 1.28565 16.4941 1.21928 16.543 1.17033C16.592 1.12138 16.6583 1.09384 16.7276 1.09375H17.5472C17.6165 1.09382 17.6828 1.12136 17.7318 1.17031C17.7807 1.21927 17.8083 1.28565 17.8083 1.35488V3.73494C17.8083 3.87614 17.6879 3.99596 17.5471 3.99596H16.7273C16.5853 3.99596 16.4664 3.8768 16.4664 3.73494V1.35488H16.4664ZM10.7849 1.35488C10.785 1.28565 10.8126 1.21928 10.8615 1.17033C10.9105 1.12138 10.9768 1.09384 11.0461 1.09375H11.8657C11.935 1.09382 12.0013 1.12136 12.0503 1.17031C12.0993 1.21927 12.1268 1.28565 12.1269 1.35488V3.73494C12.1269 3.87587 12.006 3.99596 11.8655 3.99596H11.0463C10.9053 3.99596 10.7849 3.87609 10.7849 3.73494V1.35488ZM5.10346 1.35488C5.10354 1.28565 5.13108 1.21928 5.18004 1.17033C5.22899 1.12138 5.29536 1.09384 5.36459 1.09375H6.18425C6.25348 1.09382 6.31986 1.12136 6.36881 1.17031C6.41777 1.21927 6.44531 1.28565 6.44538 1.35488V3.73494C6.44538 3.87587 6.32452 3.99596 6.18403 3.99596H5.36486C5.22437 3.99596 5.10351 3.87592 5.10351 3.73494L5.10346 1.35488ZM1.26221 7.22914V2.99906H4.00971V3.73499C4.00714 4.47284 4.62964 5.08987 5.36459 5.08987H6.18425C6.92105 5.08987 7.53918 4.47273 7.53918 3.73516V2.99906H9.69114V3.73499C9.68851 4.47295 10.311 5.08987 11.046 5.08987H11.8657C12.6025 5.08987 13.2206 4.47273 13.2206 3.73516V2.99906H15.3726V3.73499C15.374 4.47234 15.9882 5.08987 16.7274 5.08987H17.5471C18.2838 5.08987 18.902 4.47245 18.902 3.73516V2.99906H21.054V3.73499C21.054 4.47256 21.6714 5.08987 22.4089 5.08987H23.2285C23.9659 5.08987 24.5835 4.47256 24.5835 3.73516V2.99906H26.7375V7.22914H1.26221ZM12.4906 14.3921V12.0531H14.3395C14.0905 12.8044 13.9761 13.6012 13.9944 14.3921H12.4906ZM14.8295 20.3722H12.4904V18.0332H14.8295V20.3722ZM21.5781 26.2396C21.5781 26.6072 21.2793 26.9062 20.9119 26.9062C20.5443 26.9062 20.2453 26.6072 20.2453 26.2396V21.1116C20.6882 21.1538 21.1352 21.1538 21.5781 21.1113V26.2396ZM26.7378 24.0822H22.6718V20.917C24.3873 20.4684 25.8207 19.3867 26.7378 17.9559V24.0822Z" fill="white"/>
<path d="M8.84313 10.9595H5.4104C5.10842 10.9595 4.86353 11.2044 4.86353 11.5064V14.9392C4.86353 15.2412 5.10842 15.486 5.4104 15.486H8.84313C9.14512 15.486 9.39001 15.2412 9.39001 14.9392V11.5064C9.39001 11.2044 9.14517 10.9595 8.84313 10.9595ZM8.29626 14.3923H5.95728V12.0533H8.29626V14.3923ZM8.84313 16.9395H5.4104C5.10842 16.9395 4.86353 17.1843 4.86353 17.4863V20.9191C4.86353 21.2212 5.10842 21.466 5.4104 21.466H8.84313C9.14512 21.466 9.39001 21.2212 9.39001 20.9191V17.4863C9.39001 17.1843 9.14517 16.9395 8.84313 16.9395ZM8.29626 20.3722H5.95728V18.0332H8.29626V20.3722ZM20.1393 15.3001C20.3428 15.534 20.7125 15.5488 20.9341 15.3322L22.4015 13.8979C22.6175 13.6868 22.6214 13.3406 22.4103 13.1246C22.1993 12.9086 21.853 12.9046 21.6369 13.1157L20.5839 14.1449L20.3402 13.8649C20.142 13.637 19.7965 13.6131 19.5687 13.8113C19.3409 14.0096 19.3169 14.355 19.5152 14.5829L20.1393 15.3001ZM10.9298 24.4196C10.8152 24.1444 10.4912 24.0104 10.2156 24.1243C9.94 24.2382 9.80678 24.5628 9.92026 24.838C10.0338 25.1133 10.3589 25.2481 10.634 25.1338C10.9101 25.0192 11.043 24.6957 10.9298 24.4196Z" fill="white"/>
</g>
<defs>
<clipPath id="clip0_71_2325">
<rect width="28" height="28" fill="white"/>
</clipPath>
</defs>
</svg>
