<svg width="25" height="25" viewBox="0 0 25 25" fill="none" xmlns="http://www.w3.org/2000/svg">
<g clip-path="url(#clip0_71_1279)">
<path d="M4.33132 2H0.618827C0.277161 2 0 2.2771 0 2.61883V6.33132C0 6.67299 0.277103 6.95015 0.618827 6.95015C0.960551 6.95015 1.23742 6.67305 1.23742 6.33132V3.23765H4.33132C4.67299 3.23765 4.94992 2.96055 4.94992 2.61883C4.94992 2.2771 4.67305 2 4.33132 2ZM4.33132 20.5625H1.23742V17.4688C1.23742 17.1271 0.960551 16.85 0.618827 16.85C0.277103 16.85 0 17.1271 0 17.4688V21.1813C0 21.523 0.277103 21.8001 0.618827 21.8001H4.33132C4.67299 21.8001 4.94992 21.523 4.94992 21.1813C4.94992 20.8396 4.67305 20.5625 4.33132 20.5625ZM24.1312 2H20.4187C20.0771 2 19.7999 2.2771 19.7999 2.61883C19.7999 2.96055 20.077 3.23765 20.4187 3.23765H23.5124V6.33132C23.5124 6.67299 23.7895 6.95015 24.1312 6.95015C24.473 6.95015 24.7501 6.67305 24.7501 6.33132V2.61883C24.7501 2.27716 24.473 2 24.1312 2ZM24.1312 16.85C23.7896 16.85 23.5124 17.1271 23.5124 17.4688V20.5625H20.4187C20.0771 20.5625 19.7999 20.8396 19.7999 21.1813C19.7999 21.523 20.077 21.8001 20.4187 21.8001H24.1312C24.4729 21.8001 24.7501 21.523 24.7501 21.1813V17.4688C24.7501 17.1271 24.473 16.85 24.1312 16.85ZM4.33132 5.7125C3.98966 5.7125 3.7125 5.9896 3.7125 6.33132V17.4688C3.7125 17.8105 3.9896 18.0876 4.33132 18.0876C4.67305 18.0876 4.94992 17.8105 4.94992 17.4688V6.33132C4.94992 5.98966 4.67305 5.7125 4.33132 5.7125ZM6.80617 5.7125H8.04382C8.38549 5.7125 8.66242 5.9896 8.66242 6.33132V17.4688C8.66242 17.8105 8.38554 18.0876 8.04382 18.0876H6.80617C6.4645 18.0876 6.18757 17.8105 6.18757 17.4688V6.33132C6.18757 5.98966 6.46444 5.7125 6.80617 5.7125ZM10.5187 5.7125C10.177 5.7125 9.90007 5.9896 9.90007 6.33132V17.4688C9.90007 17.8105 10.1769 18.0876 10.5187 18.0876C10.8604 18.0876 11.1375 17.8105 11.1375 17.4688V6.33132C11.1375 5.98966 10.8604 5.7125 10.5187 5.7125ZM12.9937 5.7125H14.2312C14.5728 5.7125 14.85 5.9896 14.85 6.33132V17.4688C14.85 17.8105 14.5729 18.0876 14.2312 18.0876H12.9937C12.6521 18.0876 12.3749 17.8105 12.3749 17.4688V6.33132C12.3749 5.98966 12.652 5.7125 12.9937 5.7125ZM16.7062 5.7125C16.3646 5.7125 16.0874 5.9896 16.0874 6.33132V17.4688C16.0874 17.8105 16.3645 18.0876 16.7062 18.0876C17.048 18.0876 17.3251 17.8105 17.3251 17.4688V6.33132C17.3251 5.98966 17.048 5.7125 16.7062 5.7125ZM19.1813 5.7125H20.4187C20.7604 5.7125 21.0376 5.9896 21.0376 6.33132V17.4688C21.0376 17.8105 20.7605 18.0876 20.4187 18.0876H19.1813C18.8396 18.0876 18.5625 17.8105 18.5625 17.4688V6.33132C18.5625 5.98966 18.8396 5.7125 19.1813 5.7125Z" fill="white"/>
</g>
<defs>
<clipPath id="clip0_71_1279">
<rect width="24.75" height="24.75" fill="white"/>
</clipPath>
</defs>
</svg>
