<svg width="25" height="25" viewBox="0 0 25 25" fill="none" xmlns="http://www.w3.org/2000/svg">
<g clip-path="url(#clip0_71_1229)">
<path d="M20.7332 1.04984C20.4088 0.402284 19.7537 0 19.0235 0H5.72617C4.99595 0 4.3408 0.402284 4.01644 1.0498C2.42582 4.22514 1.5498 8.24716 1.5498 12.375C1.5498 16.5028 2.42582 20.5249 4.01644 23.7002C4.34085 24.3477 4.99595 24.75 5.72617 24.75H19.0235C19.7537 24.75 20.4089 24.3477 20.7332 23.7002C22.3239 20.5249 23.1999 16.5028 23.1999 12.375C23.1999 8.24716 22.3239 4.22514 20.7332 1.04984ZM19.0234 0.725146C19.4775 0.725098 19.8842 0.973951 20.0849 1.37459C20.2412 1.68721 20.3887 2.00414 20.5272 2.325H19.0855C18.9539 1.89976 18.8135 1.48374 18.666 1.0861C18.6193 0.960075 18.5599 0.839133 18.4888 0.725146H19.0234ZM10.353 1.26539C10.3974 0.965685 10.4615 0.799106 10.5019 0.725049H14.2478V0.725098C14.2881 0.799154 14.3522 0.965733 14.3967 1.26544C14.4489 1.61808 14.4974 1.97128 14.542 2.32495H10.2077C10.2537 1.96149 10.3024 1.60638 10.353 1.26539ZM6.76345 1.33834C6.9017 0.965782 7.17115 0.725098 7.44992 0.725098H9.72784C9.69178 0.848896 9.66046 0.992224 9.63571 1.159C9.57833 1.54704 9.52541 1.93574 9.47696 2.325H6.4241C6.52969 1.99357 6.64284 1.6646 6.76345 1.33834ZM4.66478 1.37459C4.86543 0.973951 5.27217 0.725098 5.72617 0.725098H6.26086C6.18968 0.839101 6.13031 0.96006 6.08365 1.0861C5.93611 1.48379 5.79573 1.8998 5.66411 2.325H4.22247C4.36101 2.00414 4.50851 1.68721 4.66478 1.37459ZM3.92551 3.0501H16.6374C16.7336 3.0501 16.8258 3.0119 16.8938 2.94391C16.9618 2.87592 17 2.7837 17 2.68755C17 2.5914 16.9618 2.49918 16.8938 2.43119C16.8258 2.3632 16.7336 2.325 16.6374 2.325H15.2727C15.2243 1.93574 15.1713 1.54704 15.114 1.159C15.0892 0.992272 15.0579 0.848944 15.0218 0.725098H17.2997C17.5785 0.725098 17.848 0.965782 17.9862 1.33834C18.1068 1.6646 18.2199 1.99357 18.3255 2.325H18.1872C18.091 2.325 17.9988 2.3632 17.9308 2.43119C17.8628 2.49918 17.8246 2.5914 17.8246 2.68755C17.8246 2.7837 17.8628 2.87592 17.9308 2.94391C17.9988 3.0119 18.091 3.0501 18.1872 3.0501H20.8241C20.9299 3.32298 21.0301 3.598 21.1247 3.87497H3.62489C3.71948 3.598 3.81971 3.32298 3.92551 3.0501ZM15.7053 7.31807C15.7031 7.27028 15.6914 7.22339 15.671 7.18012C15.6506 7.13685 15.6218 7.09804 15.5864 7.06594C15.5509 7.03383 15.5094 7.00907 15.4643 6.99307C15.4192 6.97707 15.3714 6.97015 15.3237 6.97271C15.2759 6.97528 15.2291 6.98727 15.186 7.00801C15.1429 7.02874 15.1043 7.05781 15.0724 7.09352C15.0406 7.12924 15.0162 7.1709 15.0005 7.21611C14.9848 7.26132 14.9783 7.30918 14.9812 7.35694C15.0682 8.97734 15.1123 10.6657 15.1123 12.375C15.1123 15.0738 14.9993 17.7529 14.7855 20.1492H9.96413C9.75037 17.753 9.6374 15.0739 9.6374 12.375C9.6374 9.67619 9.75042 6.99681 9.96422 4.60012H14.7856C14.8217 5.00435 14.8545 5.40887 14.8839 5.81364C14.8874 5.86113 14.9001 5.90747 14.9215 5.95002C14.9429 5.99257 14.9724 6.0305 15.0084 6.06164C15.0444 6.09278 15.0862 6.11652 15.1314 6.1315C15.1766 6.14649 15.2243 6.15242 15.2718 6.14897C15.3193 6.14552 15.3656 6.13275 15.4082 6.11139C15.4507 6.09003 15.4887 6.0605 15.5198 6.02448C15.5509 5.98847 15.5747 5.94667 15.5897 5.90147C15.6046 5.85628 15.6106 5.80858 15.6071 5.76109C15.5787 5.36954 15.5473 4.98065 15.5137 4.60016H18.9397C19.4777 6.99357 19.7623 9.67411 19.7623 12.3751C19.7623 15.0758 19.4778 17.756 18.9399 20.1492H15.5136V20.1491C15.7255 17.7483 15.8374 15.0706 15.8374 12.375C15.8374 10.6527 15.7929 8.95128 15.7053 7.31807ZM2.2749 12.375C2.2749 9.65849 2.66351 6.99294 3.39136 4.60007H5.06653C4.53996 7.00425 4.2623 9.68121 4.2623 12.375C4.2623 15.0684 4.53987 17.7452 5.06633 20.1491H3.39112C2.66341 17.7564 2.2749 15.0912 2.2749 12.375ZM5.72627 24.0249C5.27217 24.0249 4.86543 23.776 4.66478 23.3754C4.50839 23.0625 4.36079 22.7453 4.22213 22.4242H5.66391C5.79559 22.8498 5.93607 23.2661 6.0837 23.6639C6.13035 23.7899 6.18973 23.9109 6.26091 24.0249H5.72627ZM7.44992 24.0249C7.17115 24.0249 6.9017 23.7842 6.7635 23.4117C6.64277 23.0851 6.52952 22.7559 6.42386 22.4242H9.47686C9.52536 22.8137 9.57831 23.2027 9.63571 23.591C9.66046 23.7577 9.69178 23.9011 9.72784 24.0249H7.44992ZM14.3967 23.4846C14.3522 23.7843 14.2881 23.9508 14.2478 24.0249H10.5019C10.4615 23.9508 10.3974 23.7843 10.3529 23.4846C10.3007 23.1316 10.2523 22.7781 10.2076 22.4242H14.5421C14.4974 22.7781 14.4489 23.1316 14.3967 23.4846ZM17.9862 23.4117C17.848 23.7842 17.5785 24.0249 17.2997 24.0249H15.0218C15.0579 23.9011 15.0892 23.7578 15.114 23.591C15.1696 23.2164 15.2227 22.8249 15.2728 22.4242H18.3258C18.2202 22.7559 18.1069 23.0851 17.9862 23.4117ZM20.0849 23.3754C19.8842 23.776 19.4775 24.0249 19.0235 24.0249H18.4888C18.56 23.9109 18.6194 23.7899 18.666 23.6639C18.8136 23.2663 18.954 22.85 19.0858 22.4242H20.5276C20.3889 22.7453 20.2413 23.0625 20.0849 23.3754ZM20.8245 21.6991H3.92522C3.81942 21.4262 3.7192 21.1512 3.62465 20.8742H6.17491C6.27107 20.8742 6.36328 20.836 6.43127 20.768C6.49926 20.7 6.53746 20.6078 6.53746 20.5117C6.53746 20.4155 6.49926 20.3233 6.43127 20.2553C6.36328 20.1873 6.27107 20.1491 6.17491 20.1491H5.80985C5.27188 17.7559 4.9874 15.0756 4.9874 12.375C4.9874 9.67406 5.27192 6.99352 5.81 4.60007H9.23618C9.02421 7.00135 8.9123 9.67928 8.9123 12.375C8.9123 15.0706 9.02416 17.7483 9.23608 20.1491H7.72483C7.62868 20.1491 7.53646 20.1873 7.46847 20.2553C7.40048 20.3233 7.36228 20.4155 7.36228 20.5117C7.36228 20.6078 7.40048 20.7 7.46847 20.768C7.53646 20.836 7.62868 20.8742 7.72483 20.8742H21.125C21.0305 21.1512 20.9303 21.4262 20.8245 21.6991ZM19.6833 20.1491C20.2099 17.7452 20.4874 15.0685 20.4874 12.375C20.4874 9.68121 20.2098 7.00425 19.6831 4.60007H21.3583C22.0862 6.99294 22.4747 9.65849 22.4747 12.375C22.4748 15.0912 22.0863 17.7564 21.3586 20.1491H19.6833Z" fill="white"/>
</g>
<defs>
<clipPath id="clip0_71_1229">
<rect width="24.75" height="24.75" fill="white"/>
</clipPath>
</defs>
</svg>
