<svg width="25" height="25" viewBox="0 0 25 25" fill="none" xmlns="http://www.w3.org/2000/svg">
<g clip-path="url(#clip0_71_1173)">
<path d="M21.1124 17.0156H20.8172C20.8479 16.8835 20.8647 16.7461 20.8647 16.6047V8.54363C20.8653 8.03699 20.7306 7.53937 20.4746 7.10216C20.2186 6.66494 19.8506 6.30398 19.4084 6.05655V1.18433C19.4084 0.783879 19.0838 0.459229 18.6833 0.459229H15.7709C15.3704 0.459229 15.0458 0.783879 15.0458 1.18433V6.05655C14.6037 6.30398 14.2356 6.66494 13.9796 7.10216C13.7236 7.53937 13.589 8.03699 13.5895 8.54363V16.6047C13.5895 16.7461 13.6063 16.8835 13.6371 17.0156H11.1129C11.1436 16.8835 11.1604 16.7461 11.1604 16.6047V8.54363C11.161 8.03699 11.0263 7.53937 10.7703 7.10216C10.5143 6.66494 10.1463 6.30398 9.70417 6.05655V1.18433C9.70417 0.783879 9.37952 0.459229 8.97908 0.459229H6.06665C5.6662 0.459229 5.34155 0.783879 5.34155 1.18433V6.05655C4.89944 6.30398 4.53138 6.66494 4.27539 7.10216C4.01939 7.53937 3.88473 8.03699 3.88531 8.54363V16.6047C3.88531 16.7461 3.90209 16.8835 3.93283 17.0156H3.63757C1.63181 17.0156 0 18.6474 0 20.6532C0 22.659 1.63181 24.2908 3.63757 24.2908H21.1124C23.1182 24.2908 24.75 22.659 24.75 20.6532C24.75 18.6474 23.1182 17.0156 21.1124 17.0156ZM15.0397 10.6469H19.4145V14.0548H15.0397V10.6469ZM19.4145 15.505V16.6047C19.4145 16.8047 19.2519 16.9673 19.0519 16.9673H15.4023C15.2023 16.9673 15.0397 16.8047 15.0397 16.6047V15.505H19.4145ZM17.9583 1.90942V3.3717H16.496V1.90942H17.9583ZM15.9993 7.21404C16.1439 7.16605 16.2697 7.07374 16.3588 6.95021C16.448 6.82668 16.496 6.67822 16.496 6.52588V4.8219H17.9583V6.52588C17.9583 6.8383 18.1584 7.11562 18.4549 7.21404C18.7344 7.30649 18.9776 7.48477 19.1499 7.7235C19.3222 7.96223 19.4148 8.24923 19.4145 8.54363V9.19666H15.0397V8.54363C15.0394 8.24923 15.132 7.96223 15.3043 7.7235C15.4766 7.48477 15.7198 7.30649 15.9993 7.21404ZM5.33551 15.505H9.71027V16.6047C9.71027 16.8047 9.54765 16.9673 9.34772 16.9673H5.69806C5.49813 16.9673 5.33551 16.8047 5.33551 16.6047V15.505ZM9.71027 14.0548H5.33551V10.6469H9.71027V14.0548ZM8.25403 1.90942V3.3717H6.79175V1.90942H8.25403ZM6.2951 7.21404C6.43968 7.16604 6.56546 7.07373 6.65461 6.9502C6.74376 6.82668 6.79174 6.67821 6.79175 6.52588V4.8219H8.25403V6.52588C8.25403 6.8383 8.4542 7.11562 8.75067 7.21404C9.03019 7.30649 9.27341 7.48477 9.4457 7.7235C9.618 7.96223 9.71058 8.24923 9.71027 8.54363V9.19666H5.33551V8.54363C5.3352 8.24923 5.42778 7.96223 5.60007 7.7235C5.77237 7.48477 6.01559 7.30649 6.2951 7.21404ZM21.1124 22.8406H3.63757C2.43145 22.8406 1.4502 21.8593 1.4502 20.6532C1.4502 19.4471 2.43145 18.4658 3.63757 18.4658H21.1124C22.3186 18.4658 23.2998 19.4471 23.2998 20.6532C23.2998 21.8593 22.3186 22.8406 21.1124 22.8406Z" fill="white"/>
<path d="M3.63733 19.9281C3.25806 19.9281 2.89468 20.2616 2.91223 20.6532C2.92983 21.0461 3.23084 21.3783 3.63733 21.3783C4.0166 21.3783 4.37997 21.0448 4.36243 20.6532C4.34483 20.2603 4.04382 19.9281 3.63733 19.9281ZM6.5498 19.9281C6.17053 19.9281 5.80716 20.2616 5.82471 20.6532C5.8423 21.0461 6.14332 21.3783 6.5498 21.3783C6.92908 21.3783 7.29245 21.0448 7.2749 20.6532C7.25731 20.2603 6.95629 19.9281 6.5498 19.9281ZM9.46228 19.9281C9.08301 19.9281 8.71964 20.2616 8.73718 20.6532C8.75478 21.0461 9.05579 21.3783 9.46228 21.3783C9.84155 21.3783 10.2049 21.0448 10.1874 20.6532C10.1698 20.2603 9.86877 19.9281 9.46228 19.9281ZM12.3748 19.9281C11.9955 19.9281 11.6321 20.2616 11.6497 20.6532C11.6673 21.0461 11.9683 21.3783 12.3748 21.3783C12.754 21.3783 13.1174 21.0448 13.0999 20.6532C13.0823 20.2603 12.7812 19.9281 12.3748 19.9281ZM15.2872 19.9281C14.908 19.9281 14.5446 20.2616 14.5621 20.6532C14.5797 21.0461 14.8807 21.3783 15.2872 21.3783C15.6665 21.3783 16.0299 21.0448 16.0123 20.6532C15.9947 20.2603 15.6937 19.9281 15.2872 19.9281ZM18.1997 19.9281C17.8204 19.9281 17.4571 20.2616 17.4746 20.6532C17.4922 21.0461 17.7932 21.3783 18.1997 21.3783C18.579 21.3783 18.9424 21.0448 18.9248 20.6532C18.9072 20.2603 18.6062 19.9281 18.1997 19.9281ZM21.1122 19.9281C20.7329 19.9281 20.3695 20.2616 20.3871 20.6532C20.4047 21.0461 20.7057 21.3783 21.1122 21.3783C21.4915 21.3783 21.8548 21.0448 21.8373 20.6532C21.8197 20.2603 21.5187 19.9281 21.1122 19.9281Z" fill="white"/>
</g>
<defs>
<clipPath id="clip0_71_1173">
<rect width="24.75" height="24.75" fill="white"/>
</clipPath>
</defs>
</svg>
