<svg width="25" height="25" viewBox="0 0 25 25" fill="none" xmlns="http://www.w3.org/2000/svg">
<path d="M21.3855 23.9766H16.1262C14.6953 23.9766 13.5352 22.8164 13.5352 21.3855V14.3086C13.5352 13.8832 13.8832 13.5352 14.3086 13.5352H21.3855C22.8164 13.5352 23.9766 14.6953 23.9766 16.1262V21.3855C23.9766 22.8164 22.8164 23.9766 21.3855 23.9766ZM15.082 15.082V21.3855C15.082 21.9656 15.5461 22.4297 16.1262 22.4297H21.3855C21.9656 22.4297 22.4297 21.9656 22.4297 21.3855V16.1262C22.4297 15.5461 21.9656 15.082 21.3855 15.082H15.082ZM8.62383 23.9766H3.36445C1.93359 23.9766 0.773438 22.8164 0.773438 21.3855V16.1262C0.773438 14.6953 1.93359 13.5352 3.36445 13.5352H10.4414C10.8668 13.5352 11.2148 13.8832 11.2148 14.3086V21.3855C11.2148 22.8164 10.0547 23.9766 8.62383 23.9766ZM3.36445 15.082C2.78437 15.082 2.32031 15.5461 2.32031 16.1262V21.3855C2.32031 21.9656 2.78437 22.4297 3.36445 22.4297H8.62383C9.20391 22.4297 9.66797 21.9656 9.66797 21.3855V15.082H3.36445ZM21.3855 11.2148H14.3086C13.8832 11.2148 13.5352 10.8668 13.5352 10.4414V3.36445C13.5352 1.93359 14.6953 0.773438 16.1262 0.773438H21.3855C22.8164 0.773438 23.9766 1.93359 23.9766 3.36445V8.62383C23.9766 10.0547 22.8164 11.2148 21.3855 11.2148ZM15.082 9.66797H21.3855C21.9656 9.66797 22.4297 9.20391 22.4297 8.62383V3.36445C22.4297 2.78437 21.9656 2.32031 21.3855 2.32031H16.1262C15.5461 2.32031 15.082 2.78437 15.082 3.36445V9.66797ZM10.4414 11.2148H3.36445C1.93359 11.2148 0.773438 10.0547 0.773438 8.62383V3.36445C0.773438 1.93359 1.93359 0.773438 3.36445 0.773438H8.62383C10.0547 0.773438 11.2148 1.93359 11.2148 3.36445V10.4414C11.2148 10.8668 10.8668 11.2148 10.4414 11.2148ZM3.36445 2.32031C2.78437 2.32031 2.32031 2.78437 2.32031 3.36445V8.62383C2.32031 9.20391 2.78437 9.66797 3.36445 9.66797H9.66797V3.36445C9.66797 2.78437 9.20391 2.32031 8.62383 2.32031H3.36445Z" fill="white"/>
</svg>
