<svg width="25" height="25" viewBox="0 0 25 25" fill="none" xmlns="http://www.w3.org/2000/svg">
<g clip-path="url(#clip0_71_1247)">
<path d="M6.76758 9.83242H2.90039V20.3994C2.90039 21.4656 3.7678 22.333 4.83398 22.333C5.90017 22.333 6.76758 21.4656 6.76758 20.3994V9.83242Z" fill="white"/>
<path d="M6.76758 9.83242H2.90039V20.3994C2.90039 21.4656 3.7678 22.333 4.83398 22.333C5.90017 22.333 6.76758 21.4656 6.76758 20.3994V9.83242Z" stroke="white" stroke-miterlimit="10" stroke-linecap="round" stroke-linejoin="round"/>
<path d="M1.35622 7.45106H2.90044M1.35622 9.83242H2.90044M1.35622 12.2138H2.90044M1.35622 14.5952H2.90044M1.35622 16.9765H2.90044M1.35622 19.3579H2.90044M4.83403 24.2666C2.69823 24.2666 0.966797 22.5352 0.966797 20.3994V5.12407H8.70127V20.3994C8.70127 22.5352 6.96988 24.2666 4.83403 24.2666ZM0.483398 0.483398H9.18467V5.12407H0.483398V0.483398ZM14.779 12.0357C13.6865 10.9432 13.5615 9.21449 14.4854 7.97622L16.6419 5.08583C16.8098 4.86076 17.147 4.86076 17.3149 5.08583L19.4714 7.97622C20.3953 9.21449 20.2703 10.9433 19.1778 12.0357C17.9632 13.2504 15.9937 13.2504 14.779 12.0357Z" stroke="white" stroke-miterlimit="10" stroke-linecap="round" stroke-linejoin="round"/>
<path d="M17.4849 8.93185L20.4231 5.01652H22.3195M19.7958 17.2461C19.5647 17.0898 19.292 17.0065 19.0131 17.007C18.2399 17.007 17.6131 17.6338 17.6131 18.407C17.6131 19.1802 18.2399 19.807 19.0131 19.807C19.3271 19.807 19.5854 19.7036 19.7814 19.529C19.8221 19.4927 19.8601 19.4536 19.8951 19.4118M15.7051 15.6317V19.807" stroke="white" stroke-miterlimit="10" stroke-linecap="round" stroke-linejoin="round"/>
<path d="M12.3788 19.8333C13.1186 19.8333 13.7184 19.2335 13.7184 18.4936C13.7184 17.7537 13.1186 17.1539 12.3788 17.1539C11.6389 17.1539 11.0391 17.7537 11.0391 18.4936C11.0391 19.2335 11.6389 19.8333 12.3788 19.8333Z" stroke="white" stroke-miterlimit="10" stroke-linecap="round" stroke-linejoin="round"/>
<path d="M13.7183 16.9872V19.8267M22.1205 19.802L23.5132 15.7736" stroke="white" stroke-miterlimit="10" stroke-linecap="round" stroke-linejoin="round"/>
</g>
<defs>
<clipPath id="clip0_71_1247">
<rect width="24.75" height="24.75" fill="white"/>
</clipPath>
</defs>
</svg>
