<svg width="25" height="25" viewBox="0 0 25 25" fill="none" xmlns="http://www.w3.org/2000/svg">
<g clip-path="url(#clip0_71_1162)">
<path d="M12.8907 6.70319H12.375V4.64062H1.03119V6.70319H0.515689C0.230968 6.70319 0 6.47227 0 6.1875V4.12493C0 3.84021 0.230919 3.60944 0.515689 3.60944H12.8907C13.1754 3.60944 13.4062 3.84016 13.4062 4.12493V6.1875C13.4062 6.47222 13.1755 6.70319 12.8907 6.70319Z" fill="white"/>
<path d="M12.0981 4.56018L8.08647 2.00784C7.67297 1.74541 7.19333 1.60606 6.70358 1.60606C6.21384 1.60606 5.7342 1.74541 5.3207 2.00784L1.30816 4.56018L0.754279 3.68987L4.76595 1.13753C5.94835 0.386714 7.45824 0.386714 8.64088 1.13753L12.6518 3.68929L12.0981 4.56018ZM8.25 19.5937H5.15625C4.3018 19.5937 3.60938 18.9013 3.60938 18.0468V17.4947C1.83458 17.236 0.517704 15.7154 0.515625 13.9219V6.1875C0.515625 5.90277 0.746351 5.67181 1.03112 5.67181H12.3749C12.6597 5.67181 12.8906 5.90273 12.8906 6.1875V13.9219C12.8884 15.7154 11.5714 17.236 9.79688 17.4947V18.0468C9.79688 18.9013 9.10426 19.5937 8.25 19.5937ZM4.64056 17.5313V18.0468C4.64056 18.3315 4.87148 18.5625 5.15625 18.5625H8.25C8.53472 18.5625 8.7655 18.3316 8.7655 18.0468V17.0156C8.7655 16.7309 8.99642 16.4999 9.28119 16.4999C10.7044 16.4982 11.8576 15.3451 11.8592 13.9219V6.70318H1.54681V13.9219C1.5485 15.345 2.70189 16.4982 4.12487 16.4999H6.70312V17.5313H4.64056Z" fill="white"/>
<path d="M11.8593 24.75H9.79694C7.80442 24.7477 6.18977 23.133 6.1875 21.1406V19.0782H7.21869V21.1406C7.22038 22.5637 8.37377 23.7171 9.79694 23.7188H11.8593C13.2825 23.7171 14.4358 22.5637 14.4376 21.1406V1.54688C14.4376 0.692613 15.13 0 15.9844 0H19.5937C20.4481 0 21.1406 0.692613 21.1406 1.54688V2.57806H20.1094V1.54688C20.1094 1.26215 19.8785 1.03119 19.5937 1.03119H15.9844C15.6997 1.03119 15.4688 1.2621 15.4688 1.54688V21.1406C15.4665 23.1331 13.8518 24.7477 11.8593 24.75Z" fill="white"/>
<path d="M24.2344 24.75H17.0157C16.731 24.75 16.5 24.5191 16.5 24.2343V19.0782C16.5079 18.6118 16.6179 18.1528 16.8221 17.7335C17.0264 17.3142 17.3201 16.9447 17.6824 16.651C18.1743 16.1591 18.5626 15.7709 18.5626 14.9531C18.5626 14.6683 18.7935 14.4376 19.0783 14.4376H22.172C22.4567 14.4376 22.6875 14.6683 22.6875 14.9531C22.6875 15.7709 23.0759 16.1591 23.5678 16.651C23.9301 16.9447 24.2237 17.3142 24.428 17.7336C24.6322 18.1529 24.7422 18.6118 24.7501 19.0782V24.2343C24.7501 24.519 24.5191 24.75 24.2344 24.75ZM17.5314 23.7188H23.7189V19.0782C23.7189 18.2604 23.3305 17.8721 22.8386 17.3802C22.2538 16.8897 21.8516 16.2162 21.6971 15.4687H19.5531C19.3987 16.2163 18.9964 16.8898 18.4115 17.3802C17.9196 17.8722 17.5314 18.2604 17.5314 19.0782V23.7188Z" fill="white"/>
<path d="M21.1477 11.9447L22.1649 11.7751L22.6805 14.869L21.6632 15.0384L21.1477 11.9447ZM18.5698 14.8687L19.0846 11.7745L20.1018 11.9437L19.587 15.0378L18.5698 14.8687Z" fill="white"/>
<path d="M21.6563 12.375H19.5938C18.7395 12.375 18.0469 11.6824 18.0469 10.8281C18.0508 9.97541 18.7412 9.28521 19.5938 9.28125H21.6563C22.5106 9.28125 23.2032 9.97386 23.2032 10.8281C23.1992 11.6808 22.509 12.371 21.6563 12.375ZM19.5938 10.3124C19.5273 10.3119 19.4615 10.3247 19.4001 10.3501C19.3387 10.3756 19.2831 10.4131 19.2365 10.4605C19.1864 10.5077 19.1465 10.5647 19.1193 10.6279C19.0921 10.6911 19.0781 10.7593 19.0783 10.8281C19.0783 11.1128 19.309 11.3438 19.5938 11.3438H21.6563C21.7227 11.3444 21.7886 11.3315 21.85 11.3061C21.9114 11.2807 21.967 11.2431 22.0135 11.1957C22.0637 11.1486 22.1036 11.0916 22.1309 11.0284C22.1581 10.9651 22.1721 10.897 22.172 10.8281C22.172 10.5434 21.9411 10.3124 21.6563 10.3124H19.5938ZM17.0157 18.5625H22.6875V19.5937H17.0157V18.5625ZM19.0783 7.21868C18.2238 7.21868 17.5314 6.52626 17.5314 5.67181C17.5314 5.01545 18.3161 3.80637 18.6538 3.31693C18.7038 3.25192 18.7681 3.19927 18.8416 3.16304C18.9152 3.12681 18.9961 3.10797 19.0782 3.10797C19.1602 3.10797 19.2411 3.12681 19.3147 3.16304C19.3883 3.19927 19.4525 3.25192 19.5025 3.31693C19.8404 3.80637 20.6251 5.01545 20.6251 5.67181C20.6251 6.52626 19.9325 7.21868 19.0783 7.21868ZM19.0783 4.56584C18.849 4.90494 18.675 5.27822 18.5626 5.67181C18.5626 5.95653 18.7935 6.1875 19.0783 6.1875C19.363 6.1875 19.5938 5.95658 19.5938 5.67181C19.4816 5.27816 19.3076 4.90484 19.0783 4.56584ZM22.172 8.76556C21.3176 8.76556 20.6251 8.07314 20.6251 7.21868C20.6251 6.56232 21.4099 5.35325 21.7475 4.86381C21.7975 4.7988 21.8618 4.74615 21.9354 4.70992C22.009 4.67369 22.0899 4.65485 22.1719 4.65485C22.2539 4.65485 22.3348 4.67369 22.4084 4.70992C22.482 4.74615 22.5463 4.7988 22.5963 4.86381C22.9341 5.35325 23.7189 6.56232 23.7189 7.21868C23.7189 8.07314 23.0263 8.76556 22.172 8.76556ZM22.172 6.11271C21.9428 6.45181 21.7687 6.8251 21.6563 7.21868C21.6563 7.5034 21.8872 7.73437 22.172 7.73437C22.4568 7.73437 22.6875 7.50345 22.6875 7.21868C22.5754 6.82503 22.4014 6.45172 22.172 6.11271ZM6.70325 14.4376C5.28158 14.4376 4.125 13.0499 4.125 11.3438C4.125 9.72157 6.14793 8.03591 6.37827 7.84932C6.47016 7.77483 6.58486 7.73418 6.70316 7.73418C6.82145 7.73418 6.93615 7.77483 7.02805 7.84932C7.25863 8.03591 9.28131 9.72157 9.28131 11.3438C9.28131 13.0499 8.12474 14.4376 6.70325 14.4376ZM6.70325 8.93682C6.1005 9.50404 5.15638 10.5538 5.15638 11.3438C5.15638 12.4813 5.8503 13.4062 6.70325 13.4062C7.55597 13.4062 8.25013 12.4813 8.25013 11.3438C8.25013 10.5537 7.306 9.50235 6.70325 8.93682Z" fill="white"/>
<path d="M6.1875 10.8281H7.21869V15.4688H6.1875V10.8281Z" fill="white"/>
</g>
<defs>
<clipPath id="clip0_71_1162">
<rect width="24.75" height="24.75" fill="white"/>
</clipPath>
</defs>
</svg>
