<svg width="25" height="25" viewBox="0 0 25 25" fill="none" xmlns="http://www.w3.org/2000/svg">
<path d="M13.1484 20.1094H6.96094C5.68167 20.1094 4.64062 19.0683 4.64062 17.7891V4.64062C4.64062 3.36136 5.68167 2.32031 6.96094 2.32031H16.2422C17.5215 2.32031 18.5625 3.36136 18.5625 4.64062V8.55422C18.5625 8.75935 18.644 8.95607 18.789 9.10112C18.9341 9.24617 19.1308 9.32766 19.3359 9.32766C19.5411 9.32766 19.7378 9.24617 19.8828 9.10112C20.0279 8.95607 20.1094 8.75935 20.1094 8.55422V4.64062C20.1094 2.50826 18.3746 0.773438 16.2422 0.773438H6.96094C4.82857 0.773438 3.09375 2.50826 3.09375 4.64062V17.7891C3.09375 19.9214 4.82857 21.6562 6.96094 21.6562H13.1484C13.3536 21.6562 13.5503 21.5748 13.6953 21.4297C13.8404 21.2847 13.9219 21.0879 13.9219 20.8828C13.9219 20.6777 13.8404 20.481 13.6953 20.3359C13.5503 20.1909 13.3536 20.1094 13.1484 20.1094Z" fill="white"/>
<path d="M7.73438 6.96094H13.1484C13.3536 6.96094 13.5503 6.87945 13.6953 6.7344C13.8404 6.58936 13.9219 6.39263 13.9219 6.1875C13.9219 5.98237 13.8404 5.78564 13.6953 5.6406C13.5503 5.49555 13.3536 5.41406 13.1484 5.41406H7.73438C7.52925 5.41406 7.33252 5.49555 7.18747 5.6406C7.04242 5.78564 6.96094 5.98237 6.96094 6.1875C6.96094 6.39263 7.04242 6.58936 7.18747 6.7344C7.33252 6.87945 7.52925 6.96094 7.73438 6.96094ZM14.9738 10.0547C14.9738 9.84956 14.8923 9.65283 14.7472 9.50778C14.6022 9.36274 14.4054 9.28125 14.2003 9.28125H7.73438C7.52925 9.28125 7.33252 9.36274 7.18747 9.50778C7.04242 9.65283 6.96094 9.84956 6.96094 10.0547C6.96094 10.2598 7.04242 10.4565 7.18747 10.6016C7.33252 10.7466 7.52925 10.8281 7.73438 10.8281H14.2003C14.4054 10.8281 14.6022 10.7466 14.7472 10.6016C14.8923 10.4565 14.9738 10.2598 14.9738 10.0547ZM12.7772 13.1484C12.7772 12.9433 12.6957 12.7466 12.5507 12.6015C12.4056 12.4565 12.2089 12.375 12.0038 12.375H7.73438C7.52925 12.375 7.33252 12.4565 7.18747 12.6015C7.04242 12.7466 6.96094 12.9433 6.96094 13.1484C6.96094 13.3536 7.04242 13.5503 7.18747 13.6953C7.33252 13.8404 7.52925 13.9219 7.73438 13.9219H12.0038C12.2089 13.9219 12.4056 13.8404 12.5507 13.6953C12.6957 13.5503 12.7772 13.3536 12.7772 13.1484ZM7.73438 15.4688C7.52925 15.4688 7.33252 15.5502 7.18747 15.6953C7.04242 15.8403 6.96094 16.0371 6.96094 16.2422C6.96094 16.4473 7.04242 16.644 7.18747 16.7891C7.33252 16.9341 7.52925 17.0156 7.73438 17.0156H11.648C11.8531 17.0156 12.0498 16.9341 12.1949 16.7891C12.3399 16.644 12.4214 16.4473 12.4214 16.2422C12.4214 16.0371 12.3399 15.8403 12.1949 15.6953C12.0498 15.5502 11.8531 15.4688 11.648 15.4688H7.73438ZM23.2031 15.4688C23.2031 12.9094 21.1218 10.8281 18.5625 10.8281C16.0032 10.8281 13.9219 12.9094 13.9219 15.4688C13.9219 16.8385 14.5221 18.0675 15.4688 18.9183V22.8141C15.4688 23.2426 15.7046 23.6355 16.0829 23.8381C16.4634 24.0423 16.9182 24.0199 17.277 23.7809L18.5625 22.9177L19.851 23.7824C20.0264 23.8976 20.2297 23.9632 20.4393 23.9725C20.6489 23.9817 20.8571 23.9342 21.042 23.835C21.2269 23.7358 21.3815 23.5884 21.4896 23.4086C21.5977 23.2288 21.6553 23.0231 21.6562 22.8133V18.9175C22.1425 18.4839 22.5316 17.9525 22.7982 17.358C23.0648 16.7635 23.2028 16.1202 23.2031 15.4688ZM20.1094 22.0925L18.9941 21.3438C18.8667 21.258 18.7165 21.2121 18.5629 21.2121C18.4093 21.2121 18.2591 21.258 18.1317 21.3438L17.0164 22.0925V19.8387C17.5013 20.0111 18.0203 20.1094 18.5633 20.1094C19.1062 20.1094 19.6252 20.0104 20.1101 19.8387L20.1094 22.0925ZM18.5625 18.5625C16.8563 18.5625 15.4688 17.175 15.4688 15.4688C15.4688 13.7625 16.8563 12.375 18.5625 12.375C20.2687 12.375 21.6562 13.7625 21.6562 15.4688C21.6562 17.175 20.2687 18.5625 18.5625 18.5625Z" fill="white"/>
</svg>
