<svg width="25" height="25" viewBox="0 0 25 25" fill="none" xmlns="http://www.w3.org/2000/svg">
<g clip-path="url(#clip0_71_1240)">
<path d="M6.08597 7.51704C5.99757 7.49459 5.91909 7.44347 5.86282 7.37168C5.80656 7.29989 5.77567 7.21148 5.775 7.12027V0.4125C5.775 0.303098 5.73154 0.198177 5.65418 0.120818C5.57682 0.0434597 5.4719 0 5.3625 0L2.8875 0C2.7781 0 2.67318 0.0434597 2.59582 0.120818C2.51846 0.198177 2.475 0.303098 2.475 0.4125V7.12027C2.47427 7.21153 2.4433 7.29997 2.38695 7.37177C2.3306 7.44356 2.25204 7.49465 2.16356 7.51704C0.889711 7.84699 -0.000154667 8.99647 2.01641e-08 10.3125V24.3375C2.01641e-08 24.4469 0.0434597 24.5518 0.120818 24.6292C0.198177 24.7065 0.303098 24.75 0.4125 24.75H7.8375C7.9469 24.75 8.05182 24.7065 8.12918 24.6292C8.20654 24.5518 8.25 24.4469 8.25 24.3375V10.3125C8.25 8.99647 7.36014 7.84678 6.08597 7.51704ZM3.3 0.825H4.95V1.65H3.3V0.825ZM7.425 19.3875H0.825V13.6125H7.425V19.3875ZM0.825 23.925V20.2125H7.425V23.925H0.825ZM7.425 12.7875H0.825V10.3125C0.824588 9.37231 1.46004 8.55092 2.37028 8.31528C2.63568 8.24713 2.87096 8.09282 3.03922 7.87655C3.20748 7.66028 3.2992 7.39428 3.3 7.12027V2.475H4.95V7.12027C4.95053 7.39443 5.04207 7.66066 5.21027 7.87717C5.37847 8.09368 5.61379 8.24821 5.87931 8.31651C6.78913 8.5519 7.42479 9.37267 7.425 10.3125V12.7875ZM14.965 9.22386C14.3503 8.24056 14.0246 7.1042 14.025 5.94459V0.4125C14.025 0.303098 13.9815 0.198177 13.9042 0.120818C13.8268 0.0434597 13.7219 0 13.6125 0L11.1375 0C11.0281 0 10.9232 0.0434597 10.8458 0.120818C10.7685 0.198177 10.725 0.303098 10.725 0.4125V5.94464C10.7254 7.10377 10.4002 8.23969 9.78579 9.22262L9.7284 9.31348C9.03148 10.4279 8.66211 11.716 8.6625 13.0304V24.3375C8.6625 24.4469 8.70596 24.5518 8.78332 24.6292C8.86068 24.7065 8.9656 24.75 9.075 24.75H15.675C15.7844 24.75 15.8893 24.7065 15.9667 24.6292C16.044 24.5518 16.0875 24.4469 16.0875 24.3375V13.0304C16.0877 11.7155 15.718 10.4271 15.0208 9.31229L14.965 9.22386ZM11.55 0.825H13.2V1.65H11.55V0.825ZM15.2625 23.925H9.4875V13.0304C9.48701 11.8712 9.81247 10.7354 10.4267 9.75238L10.4841 9.66152C11.181 8.54706 11.5504 7.25902 11.55 5.94459V2.475H13.2V5.94464C13.1998 7.25952 13.5695 8.54793 14.2667 9.66271L14.3225 9.75114C14.9372 10.7344 15.2629 11.8708 15.2625 13.0304V23.925Z" fill="white"/>
<path d="M12.375 14.4375C11.236 14.4375 10.3125 15.361 10.3125 16.5C10.3125 17.639 11.236 18.5625 12.375 18.5625C13.514 18.5625 14.4375 17.639 14.4375 16.5C14.4361 15.3614 13.5136 14.4389 12.375 14.4375ZM12.375 17.7375C11.6916 17.7375 11.1375 17.1834 11.1375 16.5C11.1375 15.8166 11.6916 15.2625 12.375 15.2625C13.0584 15.2625 13.6125 15.8166 13.6125 16.5C13.6125 17.1834 13.0584 17.7375 12.375 17.7375ZM22.362 3.96206L22.3576 3.96C22.3321 3.94208 22.3113 3.91831 22.2969 3.89067C22.2826 3.86303 22.275 3.83234 22.275 3.80119V0.4125C22.275 0.303098 22.2315 0.198177 22.1542 0.120818C22.0768 0.0434597 21.9719 0 21.8625 0L19.3875 0C19.2781 0 19.1732 0.0434597 19.0958 0.120818C19.0185 0.198177 18.975 0.303098 18.975 0.4125V3.80031C18.975 3.83148 18.9675 3.86219 18.9531 3.88985C18.9387 3.91751 18.9179 3.9413 18.8924 3.95923L18.8876 3.96206C18.1524 4.45108 17.5496 5.11443 17.133 5.89297C16.7164 6.6715 16.499 7.54103 16.5 8.42402V24.3375C16.5 24.4469 16.5435 24.5518 16.6208 24.6292C16.6982 24.7065 16.8031 24.75 16.9125 24.75H24.3375C24.4469 24.75 24.5518 24.7065 24.6292 24.6292C24.7065 24.5518 24.75 24.4469 24.75 24.3375V8.42402C24.751 7.541 24.5335 6.67145 24.1168 5.89291C23.7001 5.11437 23.0973 4.45104 22.362 3.96206ZM19.8 0.825H21.45V1.65H19.8V0.825ZM23.925 23.925H17.325V8.42402C17.3241 7.67826 17.5075 6.94382 17.8588 6.286C18.2101 5.62817 18.7185 5.06732 19.3388 4.65331L19.3462 4.64846C19.4859 4.55544 19.6004 4.42934 19.6796 4.28136C19.7588 4.13339 19.8001 3.96813 19.8 3.80031V2.475H21.45V3.80031C21.4499 3.96814 21.4912 4.1334 21.5704 4.28138C21.6495 4.42937 21.7641 4.55548 21.9038 4.64851L21.9112 4.6529C22.5314 5.06709 23.0398 5.62803 23.3911 6.2859C23.7424 6.94378 23.9258 7.67823 23.925 8.42402V23.925Z" fill="white"/>
<path d="M18.5624 10.725C18.453 10.725 18.3481 10.7685 18.2707 10.8458C18.1934 10.9232 18.1499 11.0281 18.1499 11.1375V21.8625C18.1499 21.9719 18.1934 22.0768 18.2707 22.1542C18.3481 22.2315 18.453 22.275 18.5624 22.275H22.6874C22.7968 22.275 22.9017 22.2315 22.9791 22.1542C23.0564 22.0768 23.0999 21.9719 23.0999 21.8625V11.1375C23.0999 11.0281 23.0564 10.9232 22.9791 10.8458C22.9017 10.7685 22.7968 10.725 22.6874 10.725H18.5624ZM22.2749 21.45H18.9749V11.55H22.2749V21.45Z" fill="white"/>
</g>
<defs>
<clipPath id="clip0_71_1240">
<rect width="24.75" height="24.75" fill="white"/>
</clipPath>
</defs>
</svg>
