<svg width="25" height="25" viewBox="0 0 25 25" fill="none" xmlns="http://www.w3.org/2000/svg">
<path d="M12.8049 5.24661H11.999C11.8965 5.24661 11.7981 5.20587 11.7256 5.13335C11.653 5.06082 11.6123 4.96246 11.6123 4.85989C11.6123 4.75733 11.653 4.65897 11.7256 4.58644C11.7981 4.51392 11.8965 4.47318 11.999 4.47318H12.8049C12.9075 4.47318 13.0059 4.51392 13.0784 4.58644C13.1509 4.65897 13.1917 4.75733 13.1917 4.85989C13.1917 4.96246 13.1509 5.06082 13.0784 5.13335C13.0059 5.20587 12.9075 5.24661 12.8049 5.24661Z" fill="white"/>
<path d="M12.7816 7.67907H3.53898C3.11386 7.67907 2.70614 7.51019 2.40553 7.20958C2.10492 6.90897 1.93604 6.50125 1.93604 6.07612C1.93604 5.651 2.10492 5.24328 2.40553 4.94267C2.70614 4.64206 3.11386 4.47318 3.53898 4.47318H10.8909C10.9935 4.47318 11.0918 4.51392 11.1643 4.58644C11.2369 4.65897 11.2776 4.75733 11.2776 4.85989C11.2776 4.96246 11.2369 5.06082 11.1643 5.13335C11.0918 5.20587 10.9935 5.24661 10.8909 5.24661H3.53898C3.31898 5.24661 3.10799 5.33401 2.95243 5.48957C2.79687 5.64513 2.70947 5.85612 2.70947 6.07612C2.70947 6.29612 2.79687 6.50711 2.95243 6.66268C3.10799 6.81824 3.31898 6.90564 3.53898 6.90564H12.7816C12.8841 6.90564 12.9825 6.94638 13.055 7.0189C13.1275 7.09143 13.1683 7.18979 13.1683 7.29235C13.1683 7.39492 13.1275 7.49328 13.055 7.56581C12.9825 7.63833 12.8841 7.67907 12.7816 7.67907ZM21.2062 13.9779H11.9637C11.8611 13.9779 11.7627 13.9372 11.6902 13.8647C11.6177 13.7922 11.5769 13.6938 11.5769 13.5912C11.5769 13.4887 11.6177 13.3903 11.6902 13.3178C11.7627 13.2453 11.8611 13.2045 11.9637 13.2045H21.2062C21.4262 13.2045 21.6372 13.1171 21.7928 12.9616C21.9483 12.806 22.0357 12.595 22.0357 12.375C22.0357 12.155 21.9483 11.944 21.7928 11.7884C21.6372 11.6329 21.4262 11.5455 21.2062 11.5455H11.9401C11.8375 11.5455 11.7391 11.5047 11.6666 11.4322C11.5941 11.3597 11.5533 11.2613 11.5533 11.1588C11.5533 11.0562 11.5941 10.9578 11.6666 10.8853C11.7391 10.8128 11.8375 10.772 11.9401 10.772H21.2062C21.6314 10.772 22.0391 10.9409 22.3397 11.2415C22.6403 11.5422 22.8092 11.9499 22.8092 12.375C22.8092 12.8001 22.6403 13.2078 22.3397 13.5085C22.0391 13.8091 21.6314 13.9779 21.2062 13.9779ZM12.8052 17.8505H11.9992C11.8967 17.8505 11.7983 17.8098 11.7258 17.7373C11.6533 17.6648 11.6125 17.5664 11.6125 17.4638C11.6125 17.3613 11.6533 17.2629 11.7258 17.1904C11.7983 17.1179 11.8967 17.0771 11.9992 17.0771H12.8052C12.9077 17.0771 13.0061 17.1179 13.0786 17.1904C13.1511 17.2629 13.1919 17.3613 13.1919 17.4638C13.1919 17.5664 13.1511 17.6648 13.0786 17.7373C13.0061 17.8098 12.9077 17.8505 12.8052 17.8505Z" fill="white"/>
<path d="M12.7816 20.283H3.53898C3.11386 20.283 2.70614 20.1141 2.40553 19.8135C2.10492 19.5129 1.93604 19.1052 1.93604 18.6801C1.93604 18.2549 2.10492 17.8472 2.40553 17.5466C2.70614 17.246 3.11386 17.0771 3.53898 17.0771H10.8909C10.9935 17.0771 11.0918 17.1179 11.1643 17.1904C11.2369 17.2629 11.2776 17.3613 11.2776 17.4638C11.2776 17.5664 11.2369 17.6648 11.1643 17.7373C11.0918 17.8098 10.9935 17.8505 10.8909 17.8505H3.53898C3.31898 17.8505 3.10799 17.9379 2.95243 18.0935C2.79687 18.2491 2.70947 18.4601 2.70947 18.6801C2.70947 18.9001 2.79687 19.1111 2.95243 19.2666C3.10799 19.4222 3.31898 19.5096 3.53898 19.5096H12.7816C12.8841 19.5096 12.9825 19.5503 13.055 19.6228C13.1275 19.6954 13.1683 19.7937 13.1683 19.8963C13.1683 19.9989 13.1275 20.0972 13.055 20.1697C12.9825 20.2423 12.8841 20.283 12.7816 20.283ZM21.2062 7.67907H18.6257C18.5231 7.67907 18.4247 7.63833 18.3522 7.56581C18.2797 7.49328 18.2389 7.39492 18.2389 7.29235C18.2389 7.18979 18.2797 7.09143 18.3522 7.0189C18.4247 6.94638 18.5231 6.90564 18.6257 6.90564H21.2062C21.4262 6.90564 21.6372 6.81824 21.7928 6.66268C21.9483 6.50711 22.0357 6.29612 22.0357 6.07612C22.0357 5.85612 21.9483 5.64513 21.7928 5.48957C21.6372 5.33401 21.4262 5.24661 21.2062 5.24661H18.6253C18.5227 5.24661 18.4243 5.20587 18.3518 5.13335C18.2793 5.06082 18.2386 4.96246 18.2386 4.85989C18.2386 4.75733 18.2793 4.65897 18.3518 4.58644C18.4243 4.51392 18.5227 4.47318 18.6253 4.47318H21.2062C21.6314 4.47318 22.0391 4.64206 22.3397 4.94267C22.6403 5.24328 22.8092 5.651 22.8092 6.07612C22.8092 6.50125 22.6403 6.90897 22.3397 7.20958C22.0391 7.51019 21.6314 7.67907 21.2062 7.67907ZM21.2062 20.283H18.6257C18.5231 20.283 18.4247 20.2423 18.3522 20.1697C18.2797 20.0972 18.2389 19.9989 18.2389 19.8963C18.2389 19.7937 18.2797 19.6954 18.3522 19.6228C18.4247 19.5503 18.5231 19.5096 18.6257 19.5096H21.2062C21.4262 19.5096 21.6372 19.4222 21.7928 19.2666C21.9483 19.1111 22.0357 18.9001 22.0357 18.6801C22.0357 18.4601 21.9483 18.2491 21.7928 18.0935C21.6372 17.9379 21.4262 17.8505 21.2062 17.8505H18.6253C18.5227 17.8505 18.4243 17.8098 18.3518 17.7373C18.2793 17.6648 18.2386 17.5664 18.2386 17.4638C18.2386 17.3613 18.2793 17.2629 18.3518 17.1904C18.4243 17.1179 18.5227 17.0771 18.6253 17.0771H21.2062C21.6314 17.0771 22.0391 17.246 22.3397 17.5466C22.6403 17.8472 22.8092 18.2549 22.8092 18.6801C22.8092 19.1052 22.6403 19.5129 22.3397 19.8135C22.0391 20.1141 21.6314 20.283 21.2062 20.283Z" fill="white"/>
<path d="M16.4972 8.91425C15.9359 8.9141 15.3872 8.74751 14.9206 8.43556C14.454 8.12361 14.0903 7.6803 13.8756 7.16169C13.6609 6.64308 13.6048 6.07245 13.7144 5.52196C13.824 4.97146 14.0944 4.46583 14.4913 4.06899C14.8883 3.67215 15.394 3.40192 15.9445 3.29247C16.495 3.18302 17.0657 3.23927 17.5842 3.45411C18.1028 3.66894 18.546 4.03271 18.8578 4.49942C19.1696 4.96613 19.3361 5.51483 19.3361 6.07612C19.3352 6.82872 19.0359 7.55025 18.5036 8.08235C17.9714 8.61445 17.2498 8.91364 16.4972 8.91425ZM16.4972 4.01182C16.0888 4.01197 15.6897 4.1332 15.3502 4.36018C15.0108 4.58716 14.7463 4.9097 14.5901 5.28701C14.434 5.66432 14.3932 6.07945 14.473 6.47993C14.5528 6.8804 14.7496 7.24822 15.0384 7.53688C15.3272 7.82553 15.6951 8.02207 16.0956 8.10163C16.4962 8.18119 16.9113 8.1402 17.2885 7.98385C17.6657 7.8275 17.9881 7.5628 18.2149 7.22323C18.4417 6.88366 18.5627 6.48446 18.5626 6.07612C18.5619 5.52865 18.344 5.00383 17.9568 4.61682C17.5696 4.22981 17.0446 4.01223 16.4972 4.01182ZM6.11956 13.9776H3.53898C3.11386 13.9776 2.70614 13.8087 2.40553 13.5081C2.10492 13.2075 1.93604 12.7997 1.93604 12.3746C1.93604 11.9495 2.10492 11.5418 2.40553 11.2412C2.70614 10.9405 3.11386 10.7717 3.53898 10.7717H6.11956C6.22212 10.7717 6.32049 10.8124 6.39301 10.8849C6.46553 10.9575 6.50628 11.0558 6.50628 11.1584C6.50628 11.2609 6.46553 11.3593 6.39301 11.4318C6.32049 11.5044 6.22212 11.5451 6.11956 11.5451H3.53898C3.31898 11.5451 3.10799 11.6325 2.95243 11.7881C2.79687 11.9436 2.70947 12.1546 2.70947 12.3746C2.70947 12.5946 2.79687 12.8056 2.95243 12.9612C3.10799 13.1167 3.31898 13.2041 3.53898 13.2041H6.11956C6.22212 13.2041 6.32049 13.2449 6.39301 13.3174C6.46553 13.3899 6.50628 13.4883 6.50628 13.5908C6.50628 13.6934 6.46553 13.7918 6.39301 13.8643C6.32049 13.9368 6.22212 13.9776 6.11956 13.9776Z" fill="white"/>
<path d="M8.24829 15.2127C7.68694 15.2127 7.1382 15.0463 6.67147 14.7344C6.20473 14.4225 5.84096 13.9793 5.62616 13.4606C5.41136 12.942 5.35518 12.3713 5.46472 11.8208C5.57426 11.2702 5.8446 10.7645 6.24156 10.3676C6.63852 9.97071 7.14426 9.70044 7.69483 9.59097C8.2454 9.48151 8.81607 9.53776 9.33466 9.75264C9.85325 9.96751 10.2965 10.3313 10.6083 10.7981C10.9201 11.2649 11.0865 11.8137 11.0864 12.375C11.0855 13.1274 10.7862 13.8487 10.2541 14.3807C9.72204 14.9127 9.00069 15.2119 8.24829 15.2127ZM8.24829 10.3103C7.83993 10.3103 7.44074 10.4314 7.10121 10.6583C6.76167 10.8851 6.49703 11.2076 6.34076 11.5849C6.18449 11.9622 6.1436 12.3773 6.22327 12.7778C6.30293 13.1783 6.49958 13.5462 6.78833 13.835C7.07708 14.1237 7.44497 14.3204 7.84549 14.4C8.246 14.4797 8.66114 14.4388 9.03841 14.2825C9.41568 14.1263 9.73814 13.8616 9.96501 13.5221C10.1919 13.1825 10.313 12.7834 10.313 12.375C10.3124 11.8276 10.0946 11.3028 9.70757 10.9157C9.32049 10.5286 8.79569 10.3109 8.24829 10.3103ZM16.4974 19.4349C16.3482 19.4349 16.2023 19.3907 16.0782 19.3078C15.9541 19.2249 15.8573 19.1071 15.8001 18.9693C15.7429 18.8315 15.7279 18.6798 15.7569 18.5334C15.7859 18.387 15.8576 18.2525 15.9631 18.1468C16.0685 18.0412 16.2028 17.9692 16.3492 17.9399C16.4955 17.9106 16.6472 17.9253 16.7852 17.9822C16.9232 18.0391 17.0412 18.1356 17.1243 18.2596C17.2074 18.3835 17.252 18.5293 17.2523 18.6785C17.2524 18.8789 17.1729 19.0711 17.0314 19.213C16.8898 19.3548 16.6978 19.4346 16.4974 19.4349ZM16.4788 18.6785C16.4789 18.6834 16.4809 18.6881 16.4844 18.6915C16.4878 18.695 16.4925 18.697 16.4974 18.6971L16.4788 18.6785Z" fill="white"/>
<path d="M8.24804 13.1202C8.09874 13.1202 7.95279 13.0759 7.82865 12.993C7.70451 12.91 7.60776 12.7921 7.55063 12.6542C7.49349 12.5163 7.47854 12.3645 7.50767 12.2181C7.5368 12.0716 7.60869 11.9371 7.71426 11.8316C7.81983 11.726 7.95434 11.6541 8.10077 11.625C8.2472 11.5958 8.39898 11.6108 8.53692 11.6679C8.67485 11.7251 8.79275 11.8218 8.87569 11.9459C8.95864 12.0701 9.00291 12.216 9.00291 12.3653C9.00271 12.5655 8.92311 12.7574 8.78159 12.8989C8.64007 13.0404 8.44818 13.12 8.24804 13.1202ZM8.22948 12.3653C8.22948 12.3703 8.23143 12.375 8.23491 12.3785C8.2384 12.3819 8.24312 12.3839 8.24804 12.3839L8.22948 12.3653ZM16.4971 6.83139C16.3477 6.83146 16.2017 6.78723 16.0774 6.70429C15.9532 6.62135 15.8563 6.50342 15.7991 6.36542C15.7419 6.22742 15.7269 6.07555 15.756 5.92902C15.7851 5.78248 15.857 5.64787 15.9626 5.54221C16.0682 5.43655 16.2027 5.36458 16.3493 5.3354C16.4958 5.30623 16.6477 5.32116 16.7857 5.37832C16.9237 5.43547 17.0417 5.53227 17.1247 5.65648C17.2077 5.78069 17.252 5.92673 17.252 6.07612C17.2518 6.2763 17.1722 6.46823 17.0307 6.60981C16.8892 6.7514 16.6973 6.83108 16.4971 6.83139ZM16.4786 6.07612C16.4787 6.08102 16.4807 6.08568 16.4841 6.08914C16.4876 6.0926 16.4922 6.09459 16.4971 6.09469L16.4786 6.07612ZM16.4971 21.5182C15.9359 21.518 15.3873 21.3515 14.9207 21.0396C14.4541 20.7277 14.0905 20.2845 13.8757 19.766C13.661 19.2475 13.6048 18.6769 13.7143 18.1265C13.8238 17.576 14.094 17.0704 14.4908 16.6735C14.8876 16.2766 15.3931 16.0062 15.9436 15.8966C16.494 15.787 17.0645 15.843 17.5831 16.0576C18.1017 16.2722 18.545 16.6357 18.857 17.1022C19.169 17.5687 19.3357 18.1173 19.336 18.6785C19.3356 19.4314 19.0364 20.1533 18.5041 20.6857C17.9719 21.2182 17.25 21.5176 16.4971 21.5182ZM16.4971 16.6154C16.0887 16.6155 15.6896 16.7368 15.3501 16.9638C15.0106 17.1909 14.7461 17.5135 14.59 17.8908C14.4339 18.2682 14.3932 18.6834 14.4731 19.0839C14.553 19.4844 14.7498 19.8522 15.0388 20.1408C15.3277 20.4295 15.6958 20.6259 16.0963 20.7053C16.4969 20.7848 16.9121 20.7436 17.2893 20.5871C17.6665 20.4305 17.9888 20.1657 18.2154 19.8259C18.4421 19.4862 18.5629 19.0869 18.5626 18.6785C18.5616 18.1312 18.3436 17.6067 17.9564 17.22C17.5692 16.8332 17.0444 16.6158 16.4971 16.6154Z" fill="white"/>
</svg>
