<svg width="25" height="25" viewBox="0 0 25 25" fill="none" xmlns="http://www.w3.org/2000/svg">
<g clip-path="url(#clip0_71_3381)">
<path d="M24.0294 2.90058C24.0279 2.90058 24.0264 2.90039 24.0249 2.90039H17.4507V2.17529C17.4507 0.975836 16.4748 0 15.2754 0H9.47461C8.27515 0 7.29932 0.975885 7.29932 2.17529V2.90039H0.725098C0.321363 2.90039 0 3.23123 0 3.62549V19.5776C0 20.7771 0.975885 21.7529 2.17529 21.7529H22.5747C23.7742 21.7529 24.75 20.777 24.75 19.5776V3.63796C24.7223 3.16172 24.4294 2.90319 24.0294 2.90058ZM8.74951 2.17529C8.74951 1.77552 9.07484 1.4502 9.47461 1.4502H15.2754C15.6752 1.4502 16.0005 1.77552 16.0005 2.17529V2.90039H8.74951V2.17529ZM23.0189 4.35059L20.767 11.1057C20.7191 11.2501 20.6269 11.3758 20.5034 11.4648C20.38 11.5538 20.2316 11.6017 20.0794 11.6016H16.0005V10.8765C16.0005 10.476 15.6759 10.1514 15.2754 10.1514H9.47461C9.07411 10.1514 8.74951 10.476 8.74951 10.8765V11.6016H4.67064C4.51844 11.6017 4.37007 11.5539 4.24661 11.4648C4.12316 11.3758 4.0309 11.2501 3.98296 11.1057L1.73119 4.35059H23.0189ZM14.5503 11.6016V13.0518H10.1997V11.6016H14.5503ZM23.2998 19.5776C23.2998 19.9774 22.9745 20.3027 22.5747 20.3027H2.17529C1.77552 20.3027 1.4502 19.9774 1.4502 19.5776V8.09373L2.60716 11.5643C2.75111 11.9977 3.02796 12.3747 3.39838 12.6417C3.76881 12.9087 4.21396 13.0522 4.6706 13.0518H8.74951V13.7769C8.74951 14.1774 9.07411 14.502 9.47461 14.502H15.2754C15.6759 14.502 16.0005 14.1774 16.0005 13.7769V13.0518H20.0794C20.536 13.0522 20.9812 12.9087 21.3516 12.6417C21.722 12.3747 21.9989 11.9977 22.1428 11.5643L23.2998 8.09373V19.5776Z" fill="white"/>
</g>
<defs>
<clipPath id="clip0_71_3381">
<rect width="24.75" height="24.75" fill="white"/>
</clipPath>
</defs>
</svg>
