<svg width="93" height="10" viewBox="0 0 93 10" fill="none" xmlns="http://www.w3.org/2000/svg">
<path d="M5 0L6.12257 3.45492H9.75528L6.81636 5.59017L7.93893 9.04508L5 6.90983L2.06107 9.04508L3.18364 5.59017L0.244718 3.45492H3.87743L5 0Z" fill="#AB532B"/>
<path d="M15 0L16.1226 3.45492H19.7553L16.8164 5.59017L17.9389 9.04508L15 6.90983L12.0611 9.04508L13.1836 5.59017L10.2447 3.45492H13.8774L15 0Z" fill="#AB532B"/>
<path d="M25 0L26.1226 3.45492H29.7553L26.8164 5.59017L27.9389 9.04508L25 6.90983L22.0611 9.04508L23.1836 5.59017L20.2447 3.45492H23.8774L25 0Z" fill="#AB532B"/>
<path d="M35 0L36.1226 3.45492H39.7553L36.8164 5.59017L37.9389 9.04508L35 6.90983L32.0611 9.04508L33.1836 5.59017L30.2447 3.45492H33.8774L35 0Z" fill="#AB532B"/>
<path d="M45 0L46.1226 3.45492H49.7553L46.8164 5.59017L47.9389 9.04508L45 6.90983L42.0611 9.04508L43.1836 5.59017L40.2447 3.45492H43.8774L45 0Z" fill="#797979"/>
<mask id="mask0_71_3016" style="mask-type:alpha" maskUnits="userSpaceOnUse" x="40" y="0" width="5" height="10">
<rect x="40" width="5" height="10" fill="#797979"/>
</mask>
<g mask="url(#mask0_71_3016)">
<path d="M45 0L46.1226 3.45492H49.7553L46.8164 5.59017L47.9389 9.04508L45 6.90983L42.0611 9.04508L43.1836 5.59017L40.2447 3.45492H43.8774L45 0Z" fill="#AB532B"/>
</g>
<path d="M53.32 6.528V6.112L56.288 2.4H56.928L53.984 6.112L53.672 6.016H58.176V6.528H53.32ZM56.48 8V6.528L56.496 6.016V4.72H57.056V8H56.48ZM59.2933 8.04C59.176 8.04 59.0746 7.99733 58.9893 7.912C58.9093 7.82667 58.8693 7.72267 58.8693 7.6C58.8693 7.472 58.9093 7.368 58.9893 7.288C59.0746 7.208 59.176 7.168 59.2933 7.168C59.4106 7.168 59.5093 7.208 59.5893 7.288C59.6746 7.368 59.7173 7.472 59.7173 7.6C59.7173 7.72267 59.6746 7.82667 59.5893 7.912C59.5093 7.99733 59.4106 8.04 59.2933 8.04ZM62.3246 8.048C61.9246 8.048 61.5433 7.984 61.1806 7.856C60.818 7.72267 60.53 7.54667 60.3166 7.328L60.5966 6.872C60.7726 7.05867 61.0126 7.21333 61.3166 7.336C61.626 7.45867 61.9593 7.52 62.3166 7.52C62.7913 7.52 63.1513 7.416 63.3966 7.208C63.6473 6.99467 63.7726 6.71733 63.7726 6.376C63.7726 6.136 63.714 5.93067 63.5966 5.76C63.4846 5.584 63.2926 5.448 63.0206 5.352C62.7486 5.256 62.3753 5.208 61.9006 5.208H60.7086L60.9966 2.4H64.0606V2.912H61.2286L61.5246 2.632L61.2766 4.984L60.9806 4.696H62.0286C62.594 4.696 63.0473 4.76533 63.3886 4.904C63.73 5.04267 63.9753 5.23733 64.1246 5.488C64.2793 5.73333 64.3566 6.02133 64.3566 6.352C64.3566 6.66667 64.282 6.95467 64.1326 7.216C63.9833 7.472 63.7593 7.67467 63.4606 7.824C63.162 7.97333 62.7833 8.048 62.3246 8.048ZM64.4719 8.8L67.1119 1.264H67.6319L64.9919 8.8H64.4719ZM69.5356 8.048C69.1356 8.048 68.7542 7.984 68.3916 7.856C68.0289 7.72267 67.7409 7.54667 67.5276 7.328L67.8076 6.872C67.9836 7.05867 68.2236 7.21333 68.5276 7.336C68.8369 7.45867 69.1702 7.52 69.5276 7.52C70.0022 7.52 70.3622 7.416 70.6076 7.208C70.8582 6.99467 70.9836 6.71733 70.9836 6.376C70.9836 6.136 70.9249 5.93067 70.8076 5.76C70.6956 5.584 70.5036 5.448 70.2316 5.352C69.9596 5.256 69.5862 5.208 69.1116 5.208H67.9196L68.2076 2.4H71.2716V2.912H68.4396L68.7356 2.632L68.4876 4.984L68.1916 4.696H69.2396C69.8049 4.696 70.2582 4.76533 70.5996 4.904C70.9409 5.04267 71.1862 5.23733 71.3356 5.488C71.4902 5.73333 71.5676 6.02133 71.5676 6.352C71.5676 6.66667 71.4929 6.95467 71.3436 7.216C71.1942 7.472 70.9702 7.67467 70.6716 7.824C70.3729 7.97333 69.9942 8.048 69.5356 8.048ZM75.7366 9.552C75.4432 9.06667 75.2139 8.50667 75.0486 7.872C74.8886 7.232 74.8086 6.544 74.8086 5.808C74.8086 5.072 74.8886 4.384 75.0486 3.744C75.2139 3.09867 75.4432 2.53867 75.7366 2.064H76.2806C75.9659 2.61333 75.7339 3.19733 75.5846 3.816C75.4406 4.42933 75.3686 5.09333 75.3686 5.808C75.3686 6.52267 75.4406 7.18933 75.5846 7.808C75.7339 8.42133 75.9659 9.00267 76.2806 9.552H75.7366ZM78.0795 8V2.64L78.3355 2.912H76.7595V2.4H78.6555V8H78.0795ZM81.7621 8.048C81.3621 8.048 80.9808 7.984 80.6181 7.856C80.2555 7.72267 79.9675 7.54667 79.7541 7.328L80.0341 6.872C80.2101 7.05867 80.4501 7.21333 80.7541 7.336C81.0635 7.45867 81.3968 7.52 81.7541 7.52C82.2288 7.52 82.5888 7.416 82.8341 7.208C83.0848 6.99467 83.2101 6.71733 83.2101 6.376C83.2101 6.136 83.1515 5.93067 83.0341 5.76C82.9221 5.584 82.7301 5.448 82.4581 5.352C82.1861 5.256 81.8128 5.208 81.3381 5.208H80.1461L80.4341 2.4H83.4981V2.912H80.6661L80.9621 2.632L80.7141 4.984L80.4181 4.696H81.4661C82.0315 4.696 82.4848 4.76533 82.8261 4.904C83.1675 5.04267 83.4128 5.23733 83.5621 5.488C83.7168 5.73333 83.7941 6.02133 83.7941 6.352C83.7941 6.66667 83.7195 6.95467 83.5701 7.216C83.4208 7.472 83.1968 7.67467 82.8981 7.824C82.5995 7.97333 82.2208 8.048 81.7621 8.048ZM84.4294 6.528V6.112L87.3974 2.4H88.0374L85.0934 6.112L84.7814 6.016H89.2854V6.528H84.4294ZM87.5894 8V6.528L87.6054 6.016V4.72H88.1654V8H87.5894ZM90.2624 9.552H89.7184C90.0384 9.00267 90.2704 8.42133 90.4144 7.808C90.5638 7.18933 90.6384 6.52267 90.6384 5.808C90.6384 5.09333 90.5638 4.42933 90.4144 3.816C90.2704 3.19733 90.0384 2.61333 89.7184 2.064H90.2624C90.5664 2.53867 90.7984 3.09867 90.9584 3.744C91.1184 4.384 91.1984 5.072 91.1984 5.808C91.1984 6.544 91.1184 7.232 90.9584 7.872C90.7984 8.50667 90.5664 9.06667 90.2624 9.552Z" fill="white"/>
</svg>
